<?xml version="1.0" encoding="UTF-8" standalone="no"?>
<!DOCTYPE svg PUBLIC "-//W3C//DTD SVG 1.1//EN"
 "http://www.w3.org/Graphics/SVG/1.1/DTD/svg11.dtd">
<!-- Generated by graphviz version 12.2.1 (20241206.2353)
 -->
<!-- Pages: 1 -->
<svg width="432pt" height="260pt"
 viewBox="0.00 0.00 432.21 260.00" xmlns="http://www.w3.org/2000/svg" xmlns:xlink="http://www.w3.org/1999/xlink">
<g id="graph0" class="graph" transform="scale(1 1) rotate(0) translate(4 256)">
<polygon fill="white" stroke="none" points="-4,4 -4,-256 428.21,-256 428.21,4 -4,4"/>
<!-- [root] @fastcampus/esbuild&#45;config#build -->
<g id="node1" class="node">
<title>[root] @fastcampus/esbuild&#45;config#build</title>
<ellipse fill="none" stroke="black" cx="203.36" cy="-90" rx="164.46" ry="18"/>
<text text-anchor="middle" x="203.36" y="-84.95" font-family="Times,serif" font-size="14.00">[root] @fastcampus/esbuild&#45;config#build</text>
</g>
<!-- [root] ___ROOT___ -->
<g id="node2" class="node">
<title>[root] ___ROOT___</title>
<ellipse fill="none" stroke="black" cx="203.36" cy="-18" rx="87.18" ry="18"/>
<text text-anchor="middle" x="203.36" y="-12.95" font-family="Times,serif" font-size="14.00">[root] ___ROOT___</text>
</g>
<!-- [root] @fastcampus/esbuild&#45;config#build&#45;&gt;[root] ___ROOT___ -->
<g id="edge1" class="edge">
<title>[root] @fastcampus/esbuild&#45;config#build&#45;&gt;[root] ___ROOT___</title>
<path fill="none" stroke="black" d="M203.36,-71.7C203.36,-64.41 203.36,-55.73 203.36,-47.54"/>
<polygon fill="black" stroke="black" points="206.86,-47.62 203.36,-37.62 199.86,-47.62 206.86,-47.62"/>
</g>
<!-- [root] @fastcampus/react&#45;components&#45;layout#build -->
<g id="node3" class="node">
<title>[root] @fastcampus/react&#45;components&#45;layout#build</title>
<ellipse fill="none" stroke="black" cx="203.36" cy="-234" rx="203.36" ry="18"/>
<text text-anchor="middle" x="203.36" y="-228.95" font-family="Times,serif" font-size="14.00">[root] @fastcampus/react&#45;components&#45;layout#build</text>
</g>
<!-- [root] @fastcampus/react&#45;components&#45;layout#build&#45;&gt;[root] @fastcampus/esbuild&#45;config#build -->
<g id="edge2" class="edge">
<title>[root] @fastcampus/react&#45;components&#45;layout#build&#45;&gt;[root] @fastcampus/esbuild&#45;config#build</title>
<path fill="none" stroke="black" d="M172.59,-215.91C159.81,-207.02 146.36,-194.88 139.36,-180 132.55,-165.52 132.55,-158.48 139.36,-144 144.72,-132.61 153.86,-122.82 163.59,-114.87"/>
<polygon fill="black" stroke="black" points="165.5,-117.81 171.38,-109 161.29,-112.22 165.5,-117.81"/>
</g>
<!-- [root] @fastcampus/themes#build -->
<g id="node4" class="node">
<title>[root] @fastcampus/themes#build</title>
<ellipse fill="none" stroke="black" cx="286.36" cy="-162" rx="137.85" ry="18"/>
<text text-anchor="middle" x="286.36" y="-156.95" font-family="Times,serif" font-size="14.00">[root] @fastcampus/themes#build</text>
</g>
<!-- [root] @fastcampus/react&#45;components&#45;layout#build&#45;&gt;[root] @fastcampus/themes#build -->
<g id="edge3" class="edge">
<title>[root] @fastcampus/react&#45;components&#45;layout#build&#45;&gt;[root] @fastcampus/themes#build</title>
<path fill="none" stroke="black" d="M223.88,-215.7C234.03,-207.14 246.45,-196.66 257.54,-187.3"/>
<polygon fill="black" stroke="black" points="259.53,-190.2 264.92,-181.08 255.02,-184.85 259.53,-190.2"/>
</g>
<!-- [root] @fastcampus/themes#build&#45;&gt;[root] @fastcampus/esbuild&#45;config#build -->
<g id="edge4" class="edge">
<title>[root] @fastcampus/themes#build&#45;&gt;[root] @fastcampus/esbuild&#45;config#build</title>
<path fill="none" stroke="black" d="M266.27,-144.05C256.12,-135.5 243.62,-124.96 232.45,-115.54"/>
<polygon fill="black" stroke="black" points="234.9,-113.02 225,-109.25 230.39,-118.37 234.9,-113.02"/>
</g>
</g>
</svg>
